<?xml version="1.0" encoding="UTF-8" ?><svg width="180px" height="180px" viewBox="0 0 180 180" xmlns="http://www.w3.org/2000/svg"><path fill="rgb(128, 128, 128)" d="M945,199.8h-32.1l0-3.3c0-0.9-0.7-1.6-1.6-1.6h-5.5c-0.9,0-1.6,0.7-1.6,1.6v3.3h-51v-3.3c0-0.9-0.7-1.6-1.6-1.6h-5.5
			c-0.9,0-1.6,0.7-1.6,1.6l0,3.3h-32.1c-1.5,0-2.8,1.3-2.8,2.8v5.1c0,1.6,1.3,2.8,2.8,2.8h6.4v8.8c0,2.3,1.9,4.2,4.2,4.2h9.1
			c2.3,0,4.2-1.9,4.2-4.2l0-8.8l8.3,0v3.8c0,0.9,0.7,1.6,1.6,1.6h5.5c0.9,0,1.6-0.7,1.6-1.6v-3.8h51v3.8c0,0.9,0.7,1.6,1.6,1.6
			l5.5,0c0.9,0,1.6-0.7,1.6-1.6v-3.8h8.3v8.8c0,2.3,1.9,4.2,4.2,4.2h9.1c2.3,0,4.2-1.9,4.2-4.2l0-8.8l6.4,0c1.5,0,2.8-1.3,2.8-2.8
			v-5.1C947.8,201,946.5,199.8,945,199.8z M812.1,195.7h28.2c0.4-2.8,2.7-4.9,5.6-4.9h5.5c2.9,0,5.2,2.1,5.6,4.9l3.8,0l0,0
			c0.1-11,0.4-30.4,1.4-36c1.2-6.3,14-9,15.5-9.3l0.8-0.2l0.8,0.2c1.5,0.3,14.3,3,15.5,9.3c1.1,5.6,1.4,24.9,1.4,36v0l3.8,0
			c0.4-2.8,2.7-4.9,5.6-4.9h5.5c2.9,0,5.2,2.1,5.6,4.9H945c0.2,0,0.4,0,0.5,0c1-6,2.3-15.4,2.3-25.2c0-10.3-6.8-15.7-16.9-15.7
			c-4.2,0-7.8,1.2-10.1,2.1c-0.1-1.6-0.2-3.4-0.3-5.3c1.1,1.1,2.6,1.8,4.3,1.8c3.3,0,6-2.7,6-6c0-3.3-2.7-6-6-6c-2,0-3.8,1-4.9,2.5
			c-0.5-5-1-10.3-1.8-14.6c-1.9-11.2-22.6-14.1-39.6-14.1c-17,0-37.7,2.9-39.5,14.1c-0.7,4.3-1.3,9.6-1.8,14.6
			c-1.1-1.5-2.9-2.5-4.9-2.5c-3.3,0-6,2.7-6,6c0,3.3,2.7,6,6,6c1.7,0,3.2-0.7,4.3-1.8c-0.1,2-0.3,3.8-0.3,5.3
			c-2.2-1-5.9-2.1-10.1-2.1c-10.1,0-16.9,5.4-16.9,15.7c0,9.8,1.3,19.2,2.3,25.2C811.8,195.8,811.9,195.7,812.1,195.7z M929,164.4
			c3.8,0,7,3.1,7,7c0,3.8-3.1,7-7,7c-3.8,0-7-3.1-7-7C922,167.6,925.1,164.4,929,164.4z M845.2,128.2c1.6-4.7,17.3-7.8,33.4-7.8
			c16.1,0,31.8,3.1,33.4,7.8c0.7,2.2,2.2,12.3,2.8,19.7c-8.2-3.7-23-4.3-36.1-4.3c-13.2,0-27.9,0.6-36.1,4.3
			C842.9,140.5,844.4,130.5,845.2,128.2z M828.1,164.4c3.8,0,7,3.1,7,7c0,3.8-3.1,7-7,7c-3.8,0-7-3.1-7-7
			C821.1,167.6,824.3,164.4,828.1,164.4z M878.5,154.4c-5.6,1.1-11.9,3.9-12.3,6.1c-0.7,3.8-1.2,16.7-1.4,35.2h27.4
			c-0.1-18.6-0.6-31.4-1.4-35.3C890.4,158.2,884.2,155.5,878.5,154.4z" transform="translate(-788.650390625,-79.349609375)"></path></svg>