<?xml version="1.0" encoding="UTF-8" ?><svg width="180px" height="180px" viewBox="0 0 180 180" xmlns="http://www.w3.org/2000/svg"><path fill="rgb(50, 67, 143)" d="M246.7,187.2l0-6.3c-1.2-0.7-2.5-1.4-3.9-2v8.3H246.7z M235.8,187.2v-10.6c-1.2-0.3-2.5-0.6-3.9-0.8l0,11.4H235.8z
			 M241.2,187.2v-8.9c-1.2-0.5-2.5-0.9-3.9-1.3v10.2H241.2z M248.3,187.2h4.8c-0.6-0.9-1.3-1.9-2.2-2.8c-0.8-0.8-1.7-1.6-2.7-2.3
			V187.2z M284.5,198.8h-34.1v-5.7c0-0.9-0.7-1.6-1.6-1.6l-5.5,0c-0.9,0-1.6,0.7-1.6,1.6v5.7h-10.4v-4h-27.6v4h-10.4v-5.7
			c0-0.9-0.7-1.6-1.6-1.6l-5.5,0c-0.9,0-1.6,0.7-1.6,1.6v5.7h-34.1c-3.6,0-6.5,2.9-6.5,6.5c0,3.6,2.9,6.5,6.5,6.5h2.7v6.6
			c0,2.3,1.9,4.2,4.2,4.2h9.1c2.3,0,4.2-1.9,4.2-4.2v-6.6h13.9v2.3c0,0.9,0.7,1.6,1.6,1.6l5.5,0c0.9,0,1.6-0.7,1.6-1.6v-2.3h48.3
			v2.3c0,0.9,0.7,1.6,1.6,1.6l5.5,0c0.9,0,1.6-0.7,1.6-1.6v-2.3h13.9v6.6c0,2.3,1.9,4.2,4.2,4.2h9.1c2.3,0,4.2-1.9,4.2-4.2v-6.6h2.7
			c3.6,0,6.5-2.9,6.5-6.5C291,201.7,288.1,198.8,284.5,198.8z M228.8,208.3h-22.7v-11.1h22.7V208.3z M217.5,170.6
			c43.9,0,41.9,24.2,41.9,24.2h27.2c0,0,0-4.4,0-21.1c0-16.4-12.9-19-25-19.4c0-1.4-0.1-2.9-0.2-4.3c1,0.7,2.2,1.1,3.5,1.1
			c3.3,0,6.1-2.7,6.1-6.1c0-3.4-2.7-6.1-6.1-6.1c-1.8,0-3.5,0.8-4.6,2.1c-1.5-8.6-4.1-15.6-6.8-18.8c-4.9-5.6-23.8-6.1-35.9-6.1
			c-12.2,0-31,0.4-35.9,6.1c-2.8,3.2-5.3,10.2-6.8,18.8c-1.1-1.3-2.8-2.1-4.6-2.1c-3.4,0-6.1,2.7-6.1,6.1c0,3.3,2.7,6.1,6.1,6.1
			c1.3,0,2.5-0.4,3.5-1.1c-0.1,1.4-0.2,2.9-0.2,4.3c-12.1,0.4-25,2.9-25,19.4c0,16.7,0,21.1,0,21.1h27.2
			C175.6,194.8,173.6,170.6,217.5,170.6z M271.3,165.2c4.7,0,8.5,3.8,8.5,8.5c0,4.7-3.8,8.5-8.5,8.5c-4.7,0-8.5-3.8-8.5-8.5
			C262.7,169,266.6,165.2,271.3,165.2z M184.5,124.9c1.9-2.1,9.1-4.7,32.9-4.7c23.8,0,31,2.6,32.9,4.7c2.3,2.7,5.5,13.1,6.3,20.5
			c-11.3-5.1-27.3-5.1-39.1-5.1l-0.1,0c-11.8,0-27.8,0-39.1,5.1C179.1,138,182.2,127.5,184.5,124.9z M163.7,182.2
			c-4.7,0-8.5-3.8-8.5-8.5c0-4.7,3.8-8.5,8.5-8.5c4.7,0,8.5,3.8,8.5,8.5C172.2,178.4,168.4,182.2,163.7,182.2z M192.1,187.2v-8.3
			c-1.4,0.6-2.7,1.3-3.9,2v6.3H192.1z M186.6,187.2V182c-1,0.7-1.9,1.5-2.7,2.3c-0.9,1-1.6,1.9-2.2,2.8H186.6z M208.5,187.2V175
			c-1.3,0.1-2.6,0.3-3.9,0.5l0,11.7H208.5z M203,187.2v-11.4c-1.3,0.2-2.6,0.5-3.9,0.8l0,10.6H203z M197.6,187.2V177
			c-1.4,0.4-2.7,0.8-3.9,1.3v8.9H197.6z M213.9,187.2v-12.5c-1.3,0-2.6,0.1-3.9,0.2v12.3H213.9z M224.9,187.2v-12.3
			c-1.3-0.1-2.5-0.2-3.9-0.2v12.5H224.9z M230.3,187.2v-11.7c-1.3-0.2-2.5-0.3-3.9-0.5l0,12.1H230.3z M215.5,174.7v12.5h3.9v-12.5
			c-0.6,0-1.3,0-1.9,0C216.8,174.6,216.2,174.7,215.5,174.7z" transform="translate(-127.451171875,-79.3515625)"></path></svg>