<?xml version="1.0" encoding="UTF-8" ?><svg width="180px" height="180px" viewBox="0 0 180 180" xmlns="http://www.w3.org/2000/svg"><path fill="rgb(50, 67, 143)" d="M406.4,622.3c0.8,0,1.5-0.7,1.5-1.5c0-0.8-0.7-1.5-1.5-1.5c-0.8,0-1.5,0.7-1.5,1.5C404.9,621.6,405.6,622.3,406.4,622.3z
			 M401.3,613.8c-1.9,0-3.4,1.5-3.4,3.4c0,1.9,1.5,3.4,3.4,3.4c1.9,0,3.4-1.5,3.4-3.4C404.7,615.3,403.2,613.8,401.3,613.8z
			 M395.7,611.1c-1.2,0-2.2,1-2.2,2.2c0,1.2,1,2.2,2.2,2.2s2.2-1,2.2-2.2C397.9,612.1,396.9,611.1,395.7,611.1z M480,611.1
			c-1.2,0-2.2,1-2.2,2.2c0,1.2,1,2.2,2.2,2.2c1.2,0,2.2-1,2.2-2.2C482.2,612.1,481.2,611.1,480,611.1z M495,595.7
			c0-2.9-3-5.2-7.7-5.2c-2.2,0-3.9,0.8-5,2c-2.1-8.8-8.3-21.3-12.3-25.3c-5.8-5.8-22.9-6.3-32.3-6.3c-9.4,0-26.5,0.5-32.3,6.3
			c-4,4-10.1,16.5-12.3,25.3c-1-1.2-2.7-2-5-2c-4.6,0-7.7,2.3-7.7,5.2c0,2.9,3,5.2,7.7,5.2c1.2,0,2.3-0.3,3.2-0.7
			c-2.9,6.9-6.5,19.8-3.3,34.3c-0.7,0.6-1,1.3-1.1,2.2c-0.1,4.1,0.6,7.3,2.3,9.6v8.8c0,2.9,2.3,5.2,5.2,5.2l6.5,0
			c2.9,0,5.2-2.3,5.2-5.2V651c8-0.3,15-2,31.5-2c16.5,0,23.4,1.7,31.5,2v4.1c0,2.9,2.3,5.2,5.2,5.2h6.5c2.9,0,5.2-2.3,5.2-5.2v-8.8
			c1.7-2.3,2.3-5.5,2.3-9.6c0-0.9-0.4-1.6-1.1-2.2c3.2-14.4-0.4-27.3-3.3-34.3c0.9,0.4,2,0.7,3.2,0.7
			C491.9,600.9,495,598.6,495,595.7z M409.6,569c3.6-3.5,22.2-4.2,28.2-4.2c6,0,24.6,0.7,28.2,4.2c3.6,3.5,13.2,24.1,11.5,27.9
			c-1.6,3.8-20.3,7.8-39.7,7.8c-19.4,0-38.1-4-39.7-7.8C396.5,593.1,406,572.5,409.6,569z M409.3,622.8c-3.6,3.6-22.7-3.8-16.7-11.9
			C398.5,602.9,412.8,619.3,409.3,622.8z M437.8,629.1c-22.9,0-26.2-4.9-24.4-7.6c1.7-2.7,18.6-2.6,24.4-2.6
			c5.8,0,22.7-0.2,24.4,2.6C464,624.2,460.8,629.1,437.8,629.1z M466.4,622.8c-3.5-3.5,10.8-19.9,16.7-11.9
			C489.1,619,469.9,626.4,466.4,622.8z M474.3,613.8c-1.9,0-3.4,1.5-3.4,3.4c0,1.9,1.5,3.4,3.4,3.4c1.9,0,3.4-1.5,3.4-3.4
			C477.7,615.3,476.2,613.8,474.3,613.8z M437.8,621.3c-5.8,0-18.6,0.1-19.7,1.8c-1.1,1.7,9.4,4.4,19.7,4.4
			c10.3,0,20.8-2.8,19.7-4.4C456.4,621.4,443.7,621.3,437.8,621.3z M469.2,619.3c-0.8,0-1.5,0.7-1.5,1.5c0,0.8,0.7,1.5,1.5,1.5
			c0.8,0,1.5-0.7,1.5-1.5C470.7,620,470,619.3,469.2,619.3z" transform="translate(-347.69921875,-520.599609375)"></path></svg>