<?xml version="1.0" encoding="UTF-8" ?><svg width="180px" height="180px" viewBox="0 0 180 180" xmlns="http://www.w3.org/2000/svg"><path fill="rgb(224, 20, 84)" d="M515.4,367.7l1.5-8.9h-16.2l-3.1,7.6c-4.5-8-13.5-24-16.2-26.3c-3.7-3.1-32.6-3.5-43.6-3.5c-11,0-40,0.4-43.6,3.5
			c-2.7,2.3-11.7,18.2-16.2,26.3l-3.1-7.6h-16.2l1.5,8.9l10.8,1l1.6,2.6c-4.1,0.8-11.1,3.5-11.1,13.4c0,11.2,2,29.1,3.1,37.6v17.5
			c0,2,1.6,3.6,3.6,3.6h14c2,0,3.6-1.6,3.6-3.6l0-6.3c19.3,0,52,0,52,0s32.7,0,52,0v6.3c0,2,1.6,3.6,3.6,3.6h14c2,0,3.6-1.6,3.6-3.6
			l0-17.5c1.1-8.5,3.1-26.4,3.1-37.6c0-9.9-7-12.6-11.1-13.4l1.6-2.6L515.4,367.7z M397.7,343.6c0,0,25.1,0,40.2,0
			c15.1,0,40.2,0,40.2,0s13.3,18.9,10.6,24.9c-2.7,6-23,7.3-50.8,7.3c-27.8,0-48.1-1.4-50.8-7.3
			C384.3,362.5,397.7,343.6,397.7,343.6z M395.7,425.4c-0.9,1.8-18.6,0.6-21.4-2.1c-1.7-1.6-7.3-6.6-4.1-8.3
			C373.9,413.1,397.2,422.2,395.7,425.4z M399.5,398.2c-0.9,4.7-9.3,3.9-15.6,3.5c-6.4-0.4-18-0.4-17.6-7.2c0.4-6.9,6.6-7.8,18-5.1
			C394.4,391.8,400.4,393.4,399.5,398.2z M467.9,424c-1.7,2.7-9.8,3.8-30.1,3.8c-20.3,0-28.4-1.1-30.1-3.8c-1.7-2.7-1-10.5,3.3-18.4
			c4.2-7.9,19.5-6.2,26.8-6.2c7.3,0,22.6-1.7,26.8,6.2C468.9,413.5,469.7,421.3,467.9,424z M501.3,423.3c-2.8,2.7-20.6,4-21.4,2.1
			c-1.5-3.2,21.8-12.4,25.5-10.4C508.7,416.7,503,421.7,501.3,423.3z M509.4,394.5c0.4,6.9-11.2,6.9-17.6,7.2
			c-6.4,0.4-14.7,1.3-15.6-3.5c-1-4.8,5.1-6.4,15.3-8.9C502.8,386.6,509,387.6,509.4,394.5z" transform="translate(-347.798828125,-300)"></path></svg>