<?xml version="1.0" encoding="UTF-8" ?><svg width="180px" height="180px" viewBox="0 0 180 180" xmlns="http://www.w3.org/2000/svg"><path fill="rgb(0, 128, 0)" d="M928.3,598.8c3.8,0,6-2,6-4.4c0-2.4-2.2-4.4-6-4.4c-3.8,0-6.3,2-6.3,4.4c0,0.8,0.2,1.5,0.7,2.1l-2.7,2.8
			c-0.6-8.2-2.6-20.9-9-27.2c-7.8-7.6-14.8-7.6-32.3-7.7c-17.5-0.1-24.5-0.1-32.3,7.4c-6.5,6.3-8.6,19.2-9.2,27.3l-2.7-2.7
			c0.5-0.6,0.7-1.3,0.7-2.1c0-2.4-2.5-4.4-6.3-4.4c-3.8,0-6,2-6,4.4c0,2.4,2.2,4.4,6,4.4c0.9,0,1.8-0.1,2.6-0.3l3.6,4.3
			c-3.3,1.7-4.8,5-4.9,9.2h-0.6c-1.3,0-2.4,1.1-2.4,2.4c0,1.3,1.1,2.4,2.4,2.4h1c0.3,5.7-4.3,7.8-3,17c0.5,3.6,2.1,6.7,5.3,8.5v9.9
			c0,2.6,2.1,4.8,4.8,4.8l5.9,0c2.6,0,4.8-2.1,4.8-4.8v-8.2h60.5v8.2c0,2.6,2.1,4.8,4.8,4.8h5.9c2.6,0,4.8-2.1,4.8-4.8v-9.9
			c3.2-1.8,4.8-4.8,5.3-8.5c1.2-9.3-3.4-11.4-3-17h1c1.3,0,2.4-1.1,2.4-2.4c0-1.3-1.1-2.4-2.4-2.4l-0.6,0c0-4.2-1.5-7.5-4.9-9.2
			l3.6-4.3C926.5,598.7,927.3,598.8,928.3,598.8z M836.9,628.8c-1.8,0-3.3-1.5-3.3-3.3c0-1.8,1.5-3.3,3.3-3.3c1.8,0,3.3,1.5,3.3,3.3
			C840.2,627.3,838.7,628.8,836.9,628.8z M839.8,618.2c-3.4,0-6.2-2.8-6.2-6.2c0-3.4,2.8-6.2,6.2-6.2c3.4,0,6.2,2.8,6.2,6.2
			C846,615.4,843.2,618.2,839.8,618.2z M857.2,638.5c0,0.8-0.7,1.5-1.5,1.5l-1.3,0c-0.8,0-1.5-0.7-1.5-1.5v-8.2
			c0-0.8,0.7-1.5,1.5-1.5h1.3c0.8,0,1.5,0.7,1.5,1.5V638.5z M891.3,640h-25.5v-10.2h25.5V640z M878.5,627c-15.2,0-21.3-2.8-21.3-6.5
			c0-3.7,14.7-2.6,21.3-2.6c6.6,0,21.3-1,21.3,2.6C899.8,624.1,893.8,627,878.5,627z M882,609.9c0,1.9-1.5,3.4-3.4,3.4
			c-1.9,0-3.4-1.5-3.4-3.4c0-1.6,1-2.9,2.5-3.3V598l2,0v8.6C880.9,607.1,882,608.4,882,609.9z M904.2,638.5c0,0.8-0.7,1.5-1.5,1.5
			l-1.3,0c-0.8,0-1.5-0.7-1.5-1.5v-8.2c0-0.8,0.7-1.5,1.5-1.5h1.3c0.8,0,1.5,0.7,1.5,1.5V638.5z M878.5,596.6
			c-14.8-0.1-29.9,0.8-32.5-2.8c-1.9-2.6-1-13.1,4.4-19.7c5.4-6.6,20.8-5.5,28.3-5.4c7.5,0,22.9-1,28.2,5.7
			c5.4,6.7,6.2,17.1,4.2,19.7C908.4,597.7,893.3,596.7,878.5,596.6z M920.2,628.8c-1.8,0-3.3-1.5-3.3-3.3c0-1.8,1.5-3.3,3.3-3.3
			c1.8,0,3.3,1.5,3.3,3.3C923.5,627.3,922,628.8,920.2,628.8z M923.5,612c0,3.4-2.8,6.2-6.2,6.2c-3.4,0-6.2-2.8-6.2-6.2
			c0-3.4,2.8-6.2,6.2-6.2C920.7,605.8,923.5,608.6,923.5,612z" transform="translate(-788.599609375,-520.638671875)"></path></svg>