<?xml version="1.0" encoding="UTF-8" ?><svg width="180px" height="180px" viewBox="0 0 180 180" xmlns="http://www.w3.org/2000/svg"><path fill="rgb(50, 67, 143)" d="M285.9,608.6c0,0-8.2-12.4-28-14.8c0.1-1.7,0.1-4.1-0.3-6.9c1.3,1.1,3.5,1.6,5.7,1.5c3.2,0,5.9-1.1,5.9-3.6
			c0-2.4-2.6-4.4-5.9-4.4c-2.6,0-5.3,1.2-6.3,2.9c-0.8-3.6-2.2-7.4-4.6-11c-5-7.2-15.9-9.3-35-9.3c-19,0-30,2.1-35,9.3
			c-2.4,3.6-3.8,7.4-4.6,11c-1-1.7-3.7-2.9-6.3-2.9c-3.2,0-5.9,2-5.9,4.4c0,2.4,2.6,3.6,5.9,3.6c2.2,0,4.4-0.5,5.7-1.5
			c-0.3,2.8-0.3,5.2-0.3,6.9c-19.8,2.4-28,14.8-28,14.8c0,0-5.1,21,9.9,33c1.8,1.5,4.1,2.7,6.6,3.7v8.6c0,2.3,1.9,4.2,4.2,4.2h9.1
			c2.3,0,4.2-1.9,4.2-4.2v-4.8c9.6,1,21.2,1.2,34.4,1.2c13.3,0,24.9-0.2,34.4-1.2v4.8c0,2.3,1.9,4.2,4.2,4.2h9.1
			c2.3,0,4.2-1.9,4.2-4.2v-8.6c2.6-1,4.8-2.3,6.6-3.7C291,629.6,285.9,608.6,285.9,608.6z M169.3,634.1c-2.1,0-3.9-1.7-3.9-3.9
			c0-2.1,1.7-3.9,3.9-3.9c2.1,0,3.9,1.7,3.9,3.9C173.2,632.4,171.4,634.1,169.3,634.1z M175.7,614.7c-1,3.7-5.9,5.6-10.8,4.2
			c-4.9-1.4-8-5.5-7-9.2c1-3.7,5.9-5.6,10.8-4.2C173.6,606.9,176.7,611,175.7,614.7z M215.4,634.1h-13v-5.8c1.2,0.1,2.6,0.1,4.2,0.1
			c3.1,0,6.7,0,8.8-0.1V634.1z M232.4,634.1h-13v-5.7c2.2,0,5.7,0.1,8.8,0.1c1.6,0,2.9-0.1,4.2-0.1V634.1z M236.5,634l0-6.2
			c5-1,5.5-2.9,5.5-2.9s-1.8-0.9-5.5-1.4v-1.3c0-1.1-0.9-2-2-2c-1.1,0-2,0.9-2,2v1c-0.4,0-0.7,0-1.1,0c-3.6,0-9-0.1-11.9-0.1v-0.9
			c0-1.1-0.9-2-2-2c-1.1,0-2,0.9-2,2v0.9c-2.9,0-8.3,0.1-11.9,0.1c-0.4,0-0.7,0-1.1,0v-1c0-1.1-0.9-2-2-2c-1.1,0-2,0.9-2,2v1.3
			c-3.7,0.5-5.5,1.4-5.5,1.4s0.4,1.9,5.5,2.9v6.2c-16-1.2-16-10.8-16-10.8s2.4-5.7,13.9-5.7c5.1,0,21.1,0,21.1,0s16,0,21.1,0
			c11.4,0,13.9,5.7,13.9,5.7S252.4,632.9,236.5,634z M252.9,590.2c-3.8-3-12.6-4.9-35.4-4.9c-22.8,0-31.6,1.9-35.4,4.9
			c-0.4,0.3-1-0.1-0.9-0.9c0.4-4.1,1.5-10,4.6-14.5c3.7-5.3,12.8-7.5,31.7-7.5s28,2.2,31.7,7.5c3.1,4.5,4.2,10.5,4.6,14.5
			C253.8,590,253.2,590.4,252.9,590.2z M265.6,634.1c-2.1,0-3.9-1.7-3.9-3.9c0-2.1,1.7-3.9,3.9-3.9c2.1,0,3.9,1.7,3.9,3.9
			C269.5,632.4,267.8,634.1,265.6,634.1z M270,618.9c-4.9,1.4-9.7-0.5-10.8-4.2c-1-3.7,2.1-7.8,7-9.2c4.9-1.4,9.7,0.5,10.8,4.2
			C278,613.4,274.9,617.6,270,618.9z" transform="translate(-127.392578125,-520.55078125)"></path></svg>