<?xml version="1.0" encoding="UTF-8" ?><svg width="180px" height="180px" viewBox="0 0 180 180" xmlns="http://www.w3.org/2000/svg"><path fill="rgb(0, 0, 0)" d="M508.5,196.8h-37.8v-3.3c0-0.9-0.7-1.6-1.6-1.6h-5.5c-0.9,0-1.6,0.7-1.6,1.6v3.3h-8.7v-2.6h-31v2.6h-8.7v-3.3
			c0-0.9-0.7-1.6-1.6-1.6h-5.5c-0.9,0-1.6,0.7-1.6,1.6v3.3h-37.8c-1.5,0-2.8,1.3-2.8,2.8v5.1c0,1.5,1.3,2.8,2.8,2.8h6.4v8.8
			c0,2.3,1.9,4.2,4.2,4.2l9.1,0c2.3,0,4.2-1.9,4.2-4.2v-8.8h13.9v3.8c0,0.9,0.7,1.6,1.6,1.6h5.5c0.9,0,1.6-0.7,1.6-1.6v-3.8h8.7v2.3
			h31v-2.3h8.7v3.8c0,0.9,0.7,1.6,1.6,1.6l5.5,0c0.9,0,1.6-0.7,1.6-1.6v-3.8h13.9v8.8c0,2.3,1.9,4.2,4.2,4.2l9.1,0
			c2.3,0,4.2-1.9,4.2-4.2l0-8.8h6.4c1.5,0,2.8-1.3,2.8-2.8l0-5.1C511.4,198.1,510.1,196.8,508.5,196.8z M411.9,182.8
			c-2.8,0-5.1,2.3-5.1,5.1l62.1,0c0-2.8-2.3-5.1-5.1-5.1H411.9z M395.7,192.8c0,0-0.9-16.8,25.8-16.8h32.8
			c26.7,0,25.8,16.8,25.8,16.8h24.6c0,0,2.4-4.4,2.4-21.1c0-16.4-12.9-15.9-25-16.2c0-1.4-0.1-2.8-0.2-4.1c1.1,0.6,2.6,0.9,4.2,0.9
			c4,0,7.5-2.1,7.5-4.7c0-2.6-3.5-4.7-7.5-4.7c-2,0-3.7,0.5-4.9,1.4c-1.4-9.2-4.2-16.6-7.2-20.1c-4.9-5.6-23.8-6.1-35.9-6.1
			c-12.2,0-31,0.4-35.9,6.1c-3,3.5-5.8,10.8-7.2,20.1c-1.2-0.9-2.9-1.4-4.9-1.4c-4,0-7.5,2.1-7.5,4.7c0,2.6,3.5,4.7,7.5,4.7
			c1.6,0,3.1-0.4,4.2-0.9c-0.1,1.4-0.2,2.7-0.2,4.1c-12.1,0.3-25-0.3-25,16.2c0,16.7,2.4,21.1,2.4,21.1H395.7z M492.9,164.4
			c4,0,7.3,3.2,7.3,7.3c0,4-3.2,7.3-7.3,7.3c-4,0-7.3-3.2-7.3-7.3C485.6,167.6,488.9,164.4,492.9,164.4z M437.8,164.4
			c-6.1,0-11.1-1.3-11.1-2.8c0-1.6,5-2.8,11.1-2.8c6.1,0,11.1,1.3,11.1,2.8C448.9,163.1,444,164.4,437.8,164.4z M404.9,126.9
			c1.9-2.1,9.1-4.7,32.9-4.7c23.8,0,31,2.6,32.9,4.7c2.3,2.6,5.5,13.1,6.3,20.5c-11.3-5.1-27.3-5.1-39.1-5.1h-0.1
			c-11.8,0-27.8,0-39.1,5.1C399.4,140,402.6,129.6,404.9,126.9z M382.8,164.4c4,0,7.3,3.2,7.3,7.3c0,4-3.2,7.3-7.3,7.3
			c-4,0-7.3-3.2-7.3-7.3C375.5,167.6,378.8,164.4,382.8,164.4z" transform="translate(-347.802734375,-79.30078125)"></path></svg>