<?xml version="1.0" encoding="UTF-8" ?><svg width="180px" height="180px" viewBox="0 0 180 180" xmlns="http://www.w3.org/2000/svg"><path fill="rgb(255, 0, 0)" d="M728.9,197.6h-34.6v-2.5c0-0.9-0.7-1.6-1.6-1.6l-4.7,0c-0.9,0-1.6,0.7-1.6,1.6l0,2.5h-9.7v-2.1l-37,0v2.1H630v-2.5
			c0-0.9-0.7-1.6-1.6-1.6h-4.7c-0.9,0-1.6,0.7-1.6,1.6v2.5h-34.6c-1.5,0-2.8,1.3-2.8,2.8v3.4c0,1.5,1.3,2.8,2.8,2.8h4.8v8.8
			c0,2.3,1.9,4.2,4.2,4.2l6.7,0c2.3,0,4.2-1.9,4.2-4.2v-8.8H622v3c0,0.9,0.7,1.6,1.6,1.6h4.7c0.9,0,1.6-0.7,1.6-1.6v-3h9.7v3.2h37
			v-3.2h9.7l0,3c0,0.9,0.7,1.6,1.6,1.6h4.7c0.9,0,1.6-0.7,1.6-1.6v-3h14.8l0,8.8c0,2.3,1.9,4.2,4.2,4.2h6.7c2.3,0,4.2-1.9,4.2-4.2
			v-8.8h4.8c1.5,0,2.8-1.3,2.8-2.8v-3.4C731.7,198.9,730.5,197.6,728.9,197.6z M616,193.6c0,0-0.8-8.8,13.6-8.8h57.1
			c14.4,0,13.6,8.8,13.6,8.8h27.8c0,0,9.5-28.4-1.3-34.7c-6.1-3.6-16.7-2.5-24.5-2.6c0-2.5-0.2-4.9-0.4-7.3c1.2,1,3.1,1.6,5.3,1.6
			c4,0,7.5-2.1,7.5-4.7c0-2.6-3.5-4.7-7.5-4.7c-2.7,0-4.8,1-6,2.4c-1.5-8.6-4.2-15.3-7-18.6c-4.9-5.6-23.8-6.1-35.9-6.1
			c-12.2,0-31,0.4-35.9,6.1c-2.9,3.3-5.5,10.1-7,18.6c-1.1-1.4-3.3-2.4-6-2.4c-4,0-7.5,2.1-7.5,4.7c0,2.6,3.5,4.7,7.5,4.7
			c2.2,0,4-0.6,5.3-1.6c-0.2,2.3-0.4,4.8-0.4,7.3c-7.9,0.2-18.4-1-24.5,2.6c-10.8,6.3-1.3,34.7-1.3,34.7H616z M717.9,161.3
			c4,0,7.3,3.2,7.3,7.3c0,4-3.2,7.3-7.3,7.3c-4,0-7.3-3.2-7.3-7.3C710.7,164.5,713.9,161.3,717.9,161.3z M710.7,185.2
			c0-0.9,0.7-1.6,1.6-1.6h8.6c0.9,0,1.6,0.7,1.6,1.6v1.9c0,0.9-0.7,1.6-1.6,1.6h-8.6c-0.9,0-1.6-0.7-1.6-1.6V185.2z M658.2,170.4
			c-10.4,0-12.7-2.1-12.7-3.7c0-1.6,2.3-2,12.7-2c10.4,0,12.7,0.5,12.7,2C670.9,168.3,668.6,170.4,658.2,170.4z M625.3,127.7
			c1.9-2.1,9.1-4.7,32.9-4.7c23.8,0,31,2.6,32.9,4.7c2.3,2.7,4.7,9.9,5.5,17.3c-11.3-5.1-26.6-5.1-38.4-5.1c-11.8,0-27.1,0-38.4,5.1
			C620.6,137.6,623,130.4,625.3,127.7z M605.7,187.1c0,0.9-0.7,1.6-1.6,1.6l-8.6,0c-0.9,0-1.6-0.7-1.6-1.6v-1.9
			c0-0.9,0.7-1.6,1.6-1.6h8.6c0.9,0,1.6,0.7,1.6,1.6L605.7,187.1z M598.4,161.3c4,0,7.3,3.2,7.3,7.3c0,4-3.2,7.3-7.3,7.3
			c-4,0-7.3-3.2-7.3-7.3C591.2,164.5,594.4,161.3,598.4,161.3z" transform="translate(-568.30078125,-79.25)"></path></svg>