<?xml version="1.0" encoding="UTF-8" ?><svg width="180px" height="180px" viewBox="0 0 180 180" xmlns="http://www.w3.org/2000/svg"><path fill="rgb(156, 156, 186)" d="M274.2,372.8c4.5,0,9-2.9,9-6.4c0-3.5-4.5-6.4-9-6.4c-4.5,0-7.4,2.9-7.4,6.4l-0.6,3.4c-1.4-5.2-6.2-21.6-10.6-25.4
			c-5.2-4.5-24.8-5.4-38.2-5.4c-13.4,0-33,0.9-38.2,5.4c-4.3,3.8-9.1,20.2-10.6,25.4l-0.6-3.4c0-3.5-2.9-6.4-7.4-6.4
			c-4.5,0-9,2.9-9,6.4c0,3.5,4.5,6.4,9,6.4c1.3,0,2.5-0.3,3.5-0.7l1.8,2.3c-3.3,4.6-9.1,13.2-9.1,17.7c0,14.4,0.3,24.9,2.4,31.5
			v12.7c0,2.6,2.1,4.8,4.8,4.8h12.5c2.6,0,4.8-2.1,4.8-4.8l0-4.1c15.2,0,36.2,0,36.2,0s21,0,36.2,0l0,4.1c0,2.6,2.1,4.8,4.8,4.8
			l12.5,0c2.6,0,4.8-2.1,4.8-4.8v-12.7c2.1-6.6,2.4-17,2.4-31.5c0-4.5-5.8-13.1-9.1-17.7l1.8-2.3
			C271.7,372.5,272.9,372.8,274.2,372.8z M181.7,347.9c4.1-3.7,22.2-4.7,35.8-4.7c13.6,0,31.7,1.1,35.8,4.7
			c4.1,3.7,8.2,23.3,8.2,23.3h-87.9C173.5,371.1,177.6,351.5,181.7,347.9z M178.5,425c-4.1,1.5-14.5-7.5-11.5-10.8
			c1.7-1.9,12-1.5,13.9,1.2C182.7,418,180.7,424.1,178.5,425z M174.8,399.8c-6.1,0-11-3.8-11-8.4c0-4.6,4.9-8.4,11-8.4
			c6.1,0,11,3.8,11,8.4C185.8,396,180.8,399.8,174.8,399.8z M239.4,421.1c-4.8,4.2-12.9,3.9-22,3.9c-9.1,0-17.2,0.4-22-3.9
			c-3.4-3-2.6-5.7,0-5.7c5.8,0,22,0,22,0s16.2,0,22,0C242,415.4,242.9,418,239.4,421.1z M239.4,404.1c-5.8,0-22,0-22,0s-16.2,0-22,0
			c-5.8,0-4.7-4.5,0-8.8s12.9-3.9,22-3.9c9.1,0,17.2-0.4,22,3.9C244.2,399.6,245.3,404.1,239.4,404.1z M256.5,425
			c-2.3-0.8-4.2-6.9-2.3-9.6c1.9-2.7,12.2-3.1,13.9-1.2C270.9,417.5,260.5,426.4,256.5,425z M271.1,391.4c0,4.6-4.9,8.4-11,8.4
			c-6.1,0-11-3.8-11-8.4c0-4.6,4.9-8.4,11-8.4C266.2,383,271.1,386.8,271.1,391.4z" transform="translate(-127.400390625,-300.05078125)"></path></svg>