<?xml version="1.0" encoding="UTF-8" ?><svg width="180px" height="180px" viewBox="0 0 180 180" xmlns="http://www.w3.org/2000/svg"><path fill="rgb(219, 219, 219)" d="M878.5,396.2c-7.9,0-23.8,0.1-23.8,2c0,1.8,16.1,2.1,23.8,2.1c7.8,0,23.8-0.3,23.8-2.1
			C902.4,396.4,886.4,396.2,878.5,396.2z M939.1,374.5c3.4,0,7.2-1.7,7.2-5.2c0-3.5-3.8-5.2-7.2-5.2c-4,0-6.2,2.3-6.2,5.2
			c0,0.3,0,0.7,0.1,1l-2.7,1c0-0.1-0.1-0.2-0.1-0.2c-1.4-7.2-11.3-23.9-17.1-26.8c-3.8-1.9-25.3-2.3-34.5-2.3
			c-9.1,0-30.7,0.4-34.5,2.3c-5.8,2.9-15.7,19.6-17.1,26.8c0,0.1-0.1,0.2-0.1,0.2l-2.7-1c0.1-0.3,0.1-0.7,0.1-1
			c0-2.9-2.2-5.2-6.2-5.2c-3.4,0-7.2,1.7-7.2,5.2c0,3.5,3.8,5.2,7.2,5.2c1.6,0,2.9-0.4,3.9-1l2.6,1.5c-3.7,5.5-8.6,11.6-9.3,16.4
			c-0.8,5.6-1.5,21,0.6,28.1v15.8c0,1.5,1.2,2.7,2.7,2.7l12,0c1.5,0,2.7-1.2,2.7-2.7v-7.4c14.1,0,45.3,0,45.3,0s31.2,0,45.3,0v7.4
			c0,1.5,1.2,2.7,2.7,2.7l12,0c1.5,0,2.7-1.2,2.7-2.7v-15.8c2.1-7,1.4-22.5,0.6-28.1c-0.7-4.8-5.5-10.9-9.3-16.4l2.6-1.5
			C936.1,374.1,937.5,374.5,939.1,374.5z M845.3,348.3c3.5-2.3,22.7-2.8,33.3-2.8c10.6,0,29.8,0.5,33.3,2.8
			c3.5,2.3,13.8,17.8,12.8,20.2c-1,2.4-46.1,1.5-46.1,1.5s-45.1,0.8-46.1-1.5C831.4,366.1,841.8,350.5,845.3,348.3z M820.5,391.3
			c-0.2-1.7,0.4-3.5,1.3-4.1c0.9-0.6,3.3-0.9,5.3-0.7l1.1,0.1c2,0.2,5.1,1.1,6.9,2.1l2.5,1.4c1.8,1,4,3.2,4.9,5l0.9,1.7
			c0.9,1.8,0,3.3-2,3.3h-2.6c-2,0-5.2-0.6-7.1-1.4l-7.4-2.9C822.4,394.9,820.7,393,820.5,391.3z M824.1,416.8
			c-0.9-2.6,1.3-4.7,7.3-4.8c8.4-0.1,12.8,4.4,12.8,7.3C844.2,422.8,825.8,421.8,824.1,416.8z M901.4,424.2c-1.7,0-22.8,0-22.8,0
			s-21.1,0-22.8,0c-2.5,0-3.3-1.4-3.3-2.6c0-0.6,1.3-0.9,3.4-0.9c1.7,0,22.8,0,22.8,0s21.1,0,22.8,0c2.1,0,3.4,0.4,3.4,0.9
			C904.7,422.8,903.9,424.2,901.4,424.2z M903.5,418.7c-4.4,0-24.9,0-24.9,0s-20.5,0-24.9,0c-2.8,0-4.7-1.6-4.7-3.4
			c0-1.7,1.3-2.2,3.8-2.2c2.4,0,25.8,0,25.8,0s23.4,0,25.8,0c2.4,0,3.8,0.4,3.8,2.2C908.1,417.1,906.3,418.7,903.5,418.7z
			 M899.8,402.9c-4.4,0-21.2,0-21.2,0s-16.8,0-21.2,0c-6.1,0-8.4-3.4-8.4-6.4c0-2.4,0.9-3.1,6.2-3.1c2.4,0,23.4,0,23.4,0
			s21,0,23.4,0c5.4,0,6.2,0.7,6.2,3.1C908.1,399.5,905.9,402.9,899.8,402.9z M933,416.8c-1.7,5-20.1,6-20.1,2.5
			c0-2.9,4.5-7.4,12.8-7.3C931.7,412.1,933.8,414.2,933,416.8z M935.2,387.1c0.9,0.6,1.5,2.4,1.3,4.1c-0.2,1.7-1.8,3.7-3.7,4.4
			l-7.4,2.9c-1.9,0.8-5.1,1.4-7.1,1.4h-2.6c-2,0-2.9-1.5-2-3.3l0.9-1.7c0.9-1.8,3.2-4.1,4.9-5l2.5-1.4c1.8-1,4.9-1.9,6.9-2.1
			l1.1-0.1C932,386.3,934.4,386.6,935.2,387.1z" transform="translate(-788.599609375,-300)"></path></svg>