<?xml version="1.0" encoding="UTF-8" ?><svg width="180px" height="180px" viewBox="0 0 180 180" xmlns="http://www.w3.org/2000/svg"><path fill="rgb(24, 25, 138)" d="M733.4,367.7c0-2.6-1.6-5.9-7.2-5.7c-5.7,0.2-7.8,2.4-7.8,5.4c0,1.8-0.9,3-2.2,3.9c-3.9-5.7-18.1-26.5-21-29
			c-3.3-2.9-16.6-3.5-37-3.5c-20.4,0-33.6,0.6-37,3.5c-2.9,2.5-17.1,23.3-21,29c-1.3-0.9-2.2-2.1-2.2-3.9c0.1-2.9-2.1-5.2-7.8-5.4
			c-5.7-0.2-7.2,3.2-7.2,5.7c0,4.4,8.8,5.1,14.5,7.4c-1.8,2.7-4.6,7.1-5.4,10.5c-1.2,5.2,0,20.3,0.9,28.4v21.9c0,3,2.4,5.4,5.4,5.4
			h10.4c3,0,5.4-2.4,5.4-5.4v-2.3c12.9,1.4,29.1,1.3,44.1,1.3c15,0,31.2,0.1,44.1-1.3v2.3c0,3,2.4,5.4,5.4,5.4h10.4
			c3,0,5.4-2.4,5.4-5.4V414c0.9-8,2.1-23.2,0.9-28.4c-0.8-3.5-3.6-7.8-5.4-10.5C724.5,372.8,733.4,372.1,733.4,367.7z M604.9,401.6
			c-3.6,0-6.5-2.9-6.5-6.5c0-3.6,2.9-6.5,6.5-6.5c3.6,0,6.5,2.9,6.5,6.5C611.4,398.7,608.5,401.6,604.9,401.6z M613.7,398.6
			c0-2.3,1.9-4.2,4.2-4.2c2.3,0,4.2,1.9,4.2,4.2c0,2.3-1.9,4.2-4.2,4.2C615.6,402.8,613.7,400.9,613.7,398.6z M692.4,426.2
			c-5.1,1.9-27.2,2-34.3,2c-7,0-29.1-0.1-34.3-2c-5.9-2.2-8.1-4.7-6.4-6.4c2.5-2.4,29.2-1.5,40.6-1.5c11.5,0,38.1-0.9,40.6,1.5
			C700.6,421.5,698.3,424,692.4,426.2z M631.6,403.9c3.4-1,19.6-0.6,26.6-0.6c7,0,23.3-0.4,26.6,0.6c4.3,1.3,7.5,3.4,6.4,4.8
			c-1.4,2-21.5,1.5-33,1.5c-11.5,0-31.6,0.4-33-1.5C624.1,407.3,627.2,405.2,631.6,403.9z M698.4,402.8c-2.3,0-4.2-1.9-4.2-4.2
			c0-2.3,1.9-4.2,4.2-4.2c2.3,0,4.2,1.9,4.2,4.2C702.6,400.9,700.7,402.8,698.4,402.8z M658.2,372.4c-24.9,0-50,1.5-50.8-1.4
			c-0.8-2.9,11.9-21.9,16.1-24.4c4.1-2.6,21.6-1.8,34.7-1.8c13.1,0,30.5-0.8,34.7,1.8c4.1,2.5,16.9,21.5,16.1,24.4
			C708.1,373.8,683,372.4,658.2,372.4z M711.5,401.6c-3.6,0-6.5-2.9-6.5-6.5c0-3.6,2.9-6.5,6.5-6.5c3.6,0,6.5,2.9,6.5,6.5
			C718,398.7,715.1,401.6,711.5,401.6z" transform="translate(-568.19921875,-300.05078125)"></path></svg>