<?xml version="1.0" encoding="UTF-8" ?><svg width="180px" height="180px" viewBox="0 0 180 180" xmlns="http://www.w3.org/2000/svg"><path fill="rgb(255, 192, 203)"  d="M727.5,604.6c-2.9,0-5.3,2.4-5.3,5.3s2.4,5.3,5.3,5.3c2.9,0,5.3-2.4,5.3-5.3S730.5,604.6,727.5,604.6z M588.8,604.6
			c-2.9,0-5.3,2.4-5.3,5.3c0,3,2.4,5.3,5.3,5.3c3,0,5.3-2.4,5.3-5.3C594.2,607,591.8,604.6,588.8,604.6z M710.8,587.2
			c-1-2.4-2.7-6.3-5.2-10.5c-5.6-9.1-9.2-13-16.6-13l-61.7,0c-7.4,0-11,3.8-16.6,13c-2.5,4.1-4.3,8.1-5.2,10.5
			c-11.6,1.3-30.5,7.6-30.5,22.6v0.7c0,1.8,3,14.5,10.6,17.7c0.8,1.9,1.8,3.9,3,5.8v20.7c0,1.5,1.2,2.8,2.8,2.8l17.6,0
			c1.5,0,2.8-1.2,2.8-2.8l0-14.1l92.8,0l0,14.1c0,1.5,1.2,2.8,2.8,2.8l17.6,0c1.5,0,2.8-1.2,2.8-2.8v-21.1c1.1-1.7,2-3.6,2.8-5.4
			c0,0,0,0,0,0c7.8-3,10.8-15.9,10.8-17.8v-0.7C741.3,594.7,723,588.4,710.8,587.2z M614,578.7c5.5-9,8.1-11.1,13.3-11.1l61.7,0
			c5.2,0,7.8,2.2,13.3,11.1c1.6,2.6,3.2,5.1,4.1,8.3l-27.3,0l-0.5-1.4c-0.5-1.3-2-2.4-3.4-2.4l-34.3,0c-1.4,0-2.9,1.1-3.4,2.4
			l-0.5,1.4h-27.3C610.8,583.8,612.4,581.3,614,578.7z M677.2,590.7l-38,0l1.4-4c0.1-0.1,0.3-0.3,0.4-0.3l34.3,0
			c0.1,0,0.4,0.2,0.4,0.3L677.2,590.7z M603.7,638.8c-2.3,0-4.1-1.8-4.1-4.1c0-2.3,1.8-4.1,4.1-4.1c2.3,0,4.1,1.8,4.1,4.1
			C607.8,637,606,638.8,603.7,638.8z M694,633.3h-71.6c-2.7,0-4.9-2.2-4.9-4.9l8.5,0v0.3c0,1.5,1.2,2.7,2.7,2.7
			c1.5,0,2.7-1.2,2.7-2.7v-0.3H685v0.3c0,1.5,1.2,2.7,2.7,2.7c1.5,0,2.7-1.2,2.7-2.7l0-0.3l8.5,0C698.9,631.1,696.7,633.3,694,633.3
			z M712.7,638.8c-2.3,0-4.1-1.8-4.1-4.1c0-2.3,1.8-4.1,4.1-4.1c2.3,0,4.1,1.8,4.1,4.1S714.9,638.8,712.7,638.8z M727.1,619.7
			l-36.7,0V612c0-1.5-1.2-2.7-2.7-2.7c-1.5,0-2.7,1.2-2.7,2.7v7.6h-53.7V612c0-1.5-1.2-2.7-2.7-2.7c-1.5,0-2.7,1.2-2.7,2.7v7.6
			l-36.7,0c-6.8,0-9.2-9.2-9.2-9.2s2.4-9.2,9.2-9.2h137.7c6.8,0,9.2,9.2,9.2,9.2S733.8,619.7,727.1,619.7z M603.1,604.6
			c-2.9,0-5.3,2.4-5.3,5.3s2.4,5.3,5.3,5.3c2.9,0,5.3-2.4,5.3-5.3C608.4,607,606,604.6,603.1,604.6z M713.3,604.6
			c-2.9,0-5.3,2.4-5.3,5.3c0,3,2.4,5.3,5.3,5.3c2.9,0,5.3-2.4,5.3-5.3C718.6,607,716.2,604.6,713.3,604.6z" transform="translate(-568.19921875,-520.599609375)"></path></svg>